PathFileType	4	(X/Y/Z)	28_1_35_p1_0-303_filt_butterworth.trc
DataRate	CameraRate	NumFrames	NumMarkers	Units	OrigDataRate	OrigDataStartFrame	OrigNumFrames
60.0	60.0	6	27	m	60.0	0	303
Frame#	Time	RHip			RKnee			RAnkle			RBigToe			RSmallToe			RHeel			LHip			LKnee			LAnkle			LBigToe			LSmallToe			LHeel			Neck			Head			Nose			RShoulder			RElbow			RWrist			RThumb			RIndex			RPinky			LShoulder			LElbow			LWrist			LThumb			LIndex			LPinky			
		X1	Y1	Z1	X2	Y2	Z2	X3	Y3	Z3	X4	Y4	Z4	X5	Y5	Z5	X6	Y6	Z6	X7	Y7	Z7	X8	Y8	Z8	X9	Y9	Z9	X10	Y10	Z10	X11	Y11	Z11	X12	Y12	Z12	X13	Y13	Z13	X14	Y14	Z14	X15	Y15	Z15	X16	Y16	Z16	X17	Y17	Z17	X18	Y18	Z18	X19	Y19	Z19	X20	Y20	Z20	X21	Y21	Z21	X22	Y22	Z22	X23	Y23	Z23	X24	Y24	Z24	X25	Y25	Z25	X26	Y26	Z26	X27	Y27	Z27	
0	0.0	0.21430891355195558	0.595729510704476	0.9198542779712685	0.20970321932499295	0.8507511520204432	1.32198944426514	0.20654976776650225	1.0609083351014903	1.7325810891826379	0.19096559943845465	0.9113940638087709	1.8083338038991508	0.2590003464782808	0.9056409978541871	1.7959834333173421	0.19450312358487493	1.172191675218714	1.7802556395615103	-0.008725638822601488	0.6051929488631652	0.9267676163746611	0.007539877837754759	0.8332479867902569	1.3279753318096164	0.0142220976673521	1.0581143126733739	1.737180954314387	0.022007335176629096	0.8759698408920465	1.789712869713043	-0.03691028977341367	0.9315936396751847	1.7871163550469642	0.037428692085533455	1.1338081374664348	1.786182243667728	0.07561706596305448	0.39381559929057897	0.3131956783084977	0.07511413707249494	0.2529616091273087	0.10281717556701203	0.07499190148806356	0.19536825302341435	0.2592842513258641	0.2511859320045435	0.4040894858277196	0.4151285844037081	0.31080659577622544	0.5052947755207556	0.6792692196191427	0.13078462852720468	0.4084295980014596	0.8766820220650882	0.0499326374455472	0.4483995782615885	0.9440595227753696	0.04686678880395265	0.45208694734891236	0.9522100367556646	0.05882169395721876	0.45975508997366366	0.9617097188130609	-0.09938186557157001	0.42714551667316286	0.40303899353001477	-0.12453383728808926	0.49115309646188626	0.690057855067699	0.026689401205011204	0.3833071715948474	0.8659582034558575	0.12451548940104006	0.3987136828253892	0.9298268364144118	0.12649142321266185	0.4011185660253484	0.9439854703540976	0.08146374163922071	0.44744821283874087	0.9680330115684167
1	0.0166666666666666	0.2152784368517694	0.5915782784353725	0.9202430349689777	0.21154831965126153	0.8529622332346786	1.3251828622960968	0.20593110093067857	1.0395564257972005	1.7286710032510781	0.18872386358975224	0.9040548551034102	1.8043918816171884	0.25333464444129744	0.8956280244271096	1.794245113337451	0.19531455430914862	1.1743651222608416	1.7832072198757432	-0.009044391967231964	0.6048297097915446	0.9259833709549389	0.00869104623551434	0.8295690399431892	1.3275549109796843	0.014241016819792833	1.0581750720047012	1.7371609098261778	0.02387070351361233	0.8680422740591782	1.7897592437042296	-0.03702941858047894	0.9319532766820704	1.786991981932124	0.034260266409955456	1.1319332226552572	1.7848044960548064	0.07562104038283012	0.3938402950256507	0.31318077470668193	0.07517879201564659	0.25277876883409034	0.10284187171724203	0.0749572945916502	0.19541608598494678	0.25938132738964226	0.25116496048664005	0.4040460264590265	0.4151038436544034	0.30799051323443555	0.5053266561725288	0.6802133130909556	0.1309485963132917	0.40879757753611284	0.8766903108640424	0.051482326486783234	0.45352182491732285	0.9428004222836883	0.04983983990657262	0.46227757699850797	0.9527829838874069	0.05820139777370455	0.4627028594063574	0.9609614404098971	-0.09943405720883039	0.4267774851370343	0.40230395713620226	-0.12457669264570381	0.49098601361023564	0.6900265597494667	0.026846602774362068	0.3840514420994507	0.8671392704648693	0.12402184973154542	0.39881672628768655	0.9296845393763058	0.1264908916929417	0.4010810090688064	0.943995947946727	0.08129715338191444	0.4463364686439624	0.9669319809763898
2	0.0333333333333333	0.2148075117372231	0.5883560052604545	0.9206085696589513	0.21335588103017844	0.8547839874572255	1.3281561487161437	0.20554818652456583	1.0266246676572237	1.7262535872088756	0.18680446857235838	0.8981528075656792	1.8018959589577557	0.24989208133744956	0.8897901892479742	1.7932245558400313	0.19579350627958506	1.1756351410407904	1.7849891774609807	-0.009213152546162739	0.6046848681948389	0.925320414275963	0.008820982359467763	0.8293327729006769	1.3274525052670996	0.01424349145402716	1.058207017874939	1.7371487770550706	0.024906127723800176	0.8634900213924162	1.7898502872952964	-0.0371071701947981	0.9322084786456671	1.7870104446697863	0.03249155779086824	1.130914590624538	1.784467316422587	0.07562590582241106	0.3938494400350388	0.313179932758163	0.07522800865572088	0.25265500689671244	0.10285868540925866	0.074929801579997	0.19542422919925342	0.25938216356926214	0.2511642529626332	0.40400787705124985	0.4151028109873096	0.3063310679467893	0.5054277214510773	0.6803952841101537	0.13096372270432458	0.4087516251461518	0.8767183092687689	0.054019315975216205	0.4579936221280932	0.9419314087292421	0.05028680916929136	0.46380514470580014	0.9528428576001562	0.05695569089229754	0.46340048212266494	0.9601448045408785	-0.09943175850579543	0.4267590987763409	0.4022389601788901	-0.12460924966115348	0.49089358944311723	0.6900258682836626	0.027029689879128158	0.38483667181889814	0.868301616254526	0.1237252763067846	0.39879762965324383	0.9296120898660745	0.12650853276253862	0.4010346706623502	0.9440111622250712	0.08118876172781787	0.4455740097405988	0.9661360570890436
3	0.05	0.21268220280162886	0.585541277332127	0.9208903144874406	0.21469745628320547	0.855791968316693	1.3301554598066536	0.2054175906525333	1.0227825019972285	1.7254531790760028	0.18545302628212143	0.894655528165981	1.8010245905686604	0.24886491296725086	0.8884695806957905	1.792971953469947	0.1959537640641431	1.1760313705727723	1.7856416278000682	-0.009177785611900961	0.6048312171077204	0.9247491198902019	0.008222074592110214	0.8314612277164795	1.3276794587107927	0.014232125115592244	1.058208123632567	1.7371427189225201	0.024828691397804484	0.8625705695709978	1.7900076599773067	-0.03709908427270525	0.9322777975138445	1.78743551592812	0.03251466526547498	1.1310322401966106	1.7849358109515423	0.07563325905508322	0.39383275657682987	0.31319630899081036	0.07525243553707583	0.25259815542597186	0.10286230712006952	0.07489778351944087	0.19534345701399866	0.2590884427745462	0.2511915403667223	0.40398140173203645	0.41513396182918116	0.30595247093411937	0.5056020386589742	0.6800258000872281	0.13060318996909592	0.4075641002688837	0.8768260805862438	0.05727507618100676	0.46090111422992364	0.9417149984053639	0.048841996146149994	0.4588217461173113	0.9527047133875494	0.05476117746571432	0.46133429601595444	0.9592375434780726	-0.09939520462585098	0.4269717922852442	0.4026401294550563	-0.12462312594022132	0.4908744550855148	0.6900430191173476	0.027177691170464237	0.3854227026921956	0.869137476101275	0.12364569442604861	0.39863963526124574	0.9296396784002201	0.12654864718610417	0.400912863125688	0.9440271501545008	0.08106845759949854	0.44509730879386894	0.9655203543188043
4	0.0666666666666666	0.20977469874314797	0.5831840038956433	0.9209992541661611	0.21528142466435934	0.8561846784873611	1.3308778152042031	0.2054392448091203	1.0234788901611	1.7255795491066057	0.18449388488920343	0.8923340585367823	1.800644859937345	0.24904093705414404	0.8889869080585708	1.7930088199978675	0.1960711961241054	1.176318685125773	1.7861808275135536	-0.009031893707985957	0.6050923046762154	0.9241386429179694	0.007650397769860427	0.8333322239551364	1.32824201947164	0.014217917415710392	1.058221837456374	1.7371514375305275	0.023848731304781226	0.862992501618645	1.7901123883551104	-0.03701824185773217	0.9321926890250627	1.7884550373147354	0.033878506439560176	1.132185969387922	1.7855205554999645	0.07564040007506355	0.39379999120655496	0.31321826332288033	0.07525260274200038	0.2525805273016086	0.10285608583941185	0.07484120050096559	0.1951486477607384	0.25834478630884333	0.25123841294875404	0.40396693198744704	0.41518222758945356	0.3062026056124881	0.5056526385779219	0.6796832995500593	0.12972569937784356	0.4047316553895845	0.8770681716853287	0.060073569247913974	0.46267732008058715	0.9418928458927494	0.04742983204695553	0.4539989301884556	0.9532267656182346	0.05229982063116382	0.4584749092471667	0.9584701915840473	-0.09936781639608908	0.4271268313932495	0.4029959278497504	-0.12460528727463518	0.49085257454283304	0.6900625150848647	0.027247085126972003	0.38562817391996174	0.8694779719776883	0.12367003545381415	0.3984077961350258	0.9296564702244886	0.12659394296181117	0.4006830904596709	0.9440360806663853	0.08088660395988308	0.44478466137666584	0.965020436746676
5	0.0833333333333333	0.2072608704390329	0.5819789326827257	0.9209458164013079	0.2152712295543976	0.8565992444978157	1.3308682513148338	0.20559325310437482	1.0251055254964618	1.726304110936237	0.1835077005402406	0.8888765693122134	1.7998105248702634	0.24938490989881448	0.8883249733721335	1.792805522624329	0.1963659392645606	1.1771400774311365	1.787453905665636	-0.008928976127145532	0.605204425645682	0.9235654966941202	0.007319023234411823	0.8342647164643796	1.3292577739472384	0.014206515848284567	1.0583002710121427	1.73719376718992	0.0225177870227163	0.8619727959664671	1.7897632220961714	-0.03700585251637868	0.9322420966095384	1.789774938779706	0.03574604178930172	1.1341006397866567	1.7860038398496356	0.07563086669817297	0.39380382663284963	0.3132218270042996	0.07524033085726833	0.25256797513457835	0.10285359509018478	0.07476732933549964	0.19489892886401833	0.2573623750054596	0.2512804839034822	0.40396329092065175	0.4152192545357115	0.3064994682429112	0.5054657162760213	0.6795564418995402	0.12859733425551728	0.40108879307707584	0.8773800557843798	0.06149720834939225	0.4654961149436357	0.9419474877583376	0.04685888212016252	0.4522512851344676	0.9548098578736725	0.05091098305836065	0.45663676594919367	0.958231273668118	-0.09935953935123937	0.42713279800765064	0.40315705473976604	-0.1245362612639612	0.4907162104685511	0.6900872302905826	0.027266683086289236	0.3855718087907314	0.8695056130270374	0.12368128329649614	0.3981613409250752	0.9293466942681876	0.1266270782974796	0.4004219268384864	0.9440365838576418	0.0807099127714905	0.4446244781194627	0.9647668394819947
